<?xml version="1.0" standalone="no"?>
<!DOCTYPE svg PUBLIC "-//W3C//DTD SVG 20010904//EN"
 "http://www.w3.org/TR/2001/REC-SVG-20010904/DTD/svg10.dtd">
<svg version="1.0" xmlns="http://www.w3.org/2000/svg"
 width="700.000000pt" height="700.000000pt" viewBox="0 0 700.000000 700.000000"
 preserveAspectRatio="xMidYMid meet">
<metadata>
Created by potrace 1.14, written by Peter Selinger 2001-2017
</metadata>
<g transform="translate(0.000000,700.000000) scale(0.100000,-0.100000)"
fill="#000000" stroke="none">
<path d="M3390 5599 c-14 -5 -30 -17 -37 -28 -6 -10 -19 -90 -29 -178 l-17
-160 -121 -26 c-181 -38 -256 -63 -402 -133 -619 -297 -1003 -922 -989 -1609
2 -82 6 -166 9 -185 3 -19 8 -53 12 -75 12 -79 56 -242 88 -325 161 -415 453
-738 847 -935 60 -30 121 -55 137 -55 32 0 66 31 75 69 10 43 -12 68 -99 111
-292 144 -515 341 -671 595 -336 543 -313 1227 59 1760 20 29 146 174 172 199
179 167 333 267 530 346 82 32 226 74 293 85 l42 7 -4 -34 c-12 -89 -17 -179
-11 -202 11 -44 74 -66 116 -39 14 9 79 59 144 112 66 53 146 117 178 143 33
26 66 55 74 65 27 35 16 79 -35 139 -14 17 -39 48 -56 69 -106 137 -220 272
-239 282 -25 14 -32 15 -66 2z"/>
<path d="M4133 5108 c-27 -13 -47 -60 -39 -92 7 -29 38 -51 126 -91 236 -107
471 -312 628 -547 112 -167 214 -414 237 -573 3 -22 8 -46 11 -54 26 -76 23
-408 -5 -531 -5 -25 -13 -61 -16 -80 -10 -57 -72 -236 -110 -313 -159 -330
-425 -597 -751 -752 -95 -46 -244 -97 -329 -115 -27 -6 -63 -13 -79 -17 -16
-3 -27 -2 -23 3 3 5 8 43 12 84 3 41 8 90 10 109 2 27 -3 41 -25 63 -53 53
-49 54 -339 -177 -84 -67 -155 -132 -161 -147 -15 -33 -3 -73 33 -115 21 -23
64 -76 150 -183 154 -191 164 -200 222 -176 41 17 44 27 60 176 4 36 9 74 11
85 2 11 5 39 6 62 1 41 3 43 37 49 183 32 360 88 507 162 495 246 836 694 945
1242 27 137 34 423 13 555 -32 203 -75 346 -156 515 -149 312 -384 571 -678
748 -164 98 -254 132 -297 110z"/>
<path d="M2598 4266 c-1 -2 -60 -6 -129 -10 -167 -8 -192 -18 -204 -82 -4 -22
3 -42 29 -84 69 -108 114 -214 146 -345 44 -182 96 -267 222 -365 82 -63 254
-117 312 -97 37 13 63 69 47 105 -7 13 -44 63 -84 111 -173 205 -195 244 -156
280 32 30 50 27 111 -21 212 -165 373 -414 471 -727 l35 -111 -32 -78 c-65
-153 -115 -317 -121 -394 -6 -73 81 -117 133 -68 12 12 22 24 23 28 5 47 51
208 84 295 56 142 161 340 232 434 21 29 45 116 88 313 36 164 76 305 91 320
49 48 134 14 134 -53 0 -18 -7 -57 -16 -87 -8 -30 -22 -82 -30 -115 -8 -33
-17 -69 -21 -80 -4 -14 9 -7 48 26 135 114 313 219 372 219 30 0 37 -5 50 -33
22 -45 10 -87 -29 -107 -36 -19 -224 -140 -224 -144 0 -2 34 -12 75 -21 77
-17 102 -36 109 -82 5 -27 -21 -71 -46 -79 -31 -11 -38 -11 -78 -2 -84 17
-109 20 -175 22 -78 2 -68 8 -164 -104 -74 -85 -140 -186 -165 -248 -15 -40
-15 -46 0 -77 13 -28 24 -36 57 -43 44 -9 178 -8 237 3 224 38 400 172 502
380 40 81 46 100 93 298 43 183 73 254 175 427 59 99 78 141 75 160 -5 31 -48
70 -78 71 -12 0 -31 2 -41 4 -115 22 -495 22 -602 1 -12 -2 -39 -7 -60 -10
-106 -17 -279 -76 -364 -124 -175 -99 -307 -270 -355 -461 -10 -36 -19 -72
-21 -80 -3 -9 -11 -5 -25 13 -13 17 -18 33 -14 44 19 45 34 133 35 194 1 324
-247 548 -637 574 -48 3 -93 7 -100 9 -6 2 -13 2 -15 1z"/>
</g>
</svg>
